HIERARCHY
ROOT Hips
{
	OFFSET	0.00	0.00	0.00
	CHANNELS 6 Xposition Yposition Zposition Zrotation Xrotation Yrotation
	JOINT LeftUpLeg
	{
		OFFSET	 0.126116	-0.065224	 0.014019
		CHANNELS 3 Zrotation Xrotation Yrotation
		JOINT LeftLeg
		{
			OFFSET	 0.000000	 0.569914	 0.000000
			CHANNELS 3 Zrotation Xrotation Yrotation
			JOINT LeftFoot
			{
				OFFSET	 0.000000	 0.544423	 0.000000
				CHANNELS 3 Zrotation Xrotation Yrotation
				JOINT LeftToeBase
				{
					OFFSET	 0.000000	 0.207117	 0.000000
					CHANNELS 3 Zrotation Xrotation Yrotation
					End Site
					{
						OFFSET	 0.000000	 0.207117	 0.000000
					}
				}
			}
		}
	}
	JOINT RightUpLeg
	{
		OFFSET	-0.124023	-0.065224	 0.008373
		CHANNELS 3 Zrotation Xrotation Yrotation
		JOINT RightLeg
		{
			OFFSET	 0.000000	 0.570047	 0.000000
			CHANNELS 3 Zrotation Xrotation Yrotation
			JOINT RightFoot
			{
				OFFSET	 0.000000	 0.544354	 0.000000
				CHANNELS 3 Zrotation Xrotation Yrotation
				JOINT RightToeBase
				{
					OFFSET	 0.000000	 0.207540	 0.000000
					CHANNELS 3 Zrotation Xrotation Yrotation
					End Site
					{
						OFFSET	 0.000000	 0.207540	 0.000000
					}
				}
			}
		}
	}
	JOINT Spine
	{
		OFFSET	 0.000184	 0.117403	 0.007763
		CHANNELS 3 Zrotation Xrotation Yrotation
		JOINT Spine1
		{
			OFFSET	 0.000000	 0.137269	 0.000000
			CHANNELS 3 Zrotation Xrotation Yrotation
			JOINT Spine2
			{
				OFFSET	 0.000000	 0.156879	 0.000000
				CHANNELS 3 Zrotation Xrotation Yrotation
				JOINT LeftShoulder
				{
					OFFSET	 0.080501	 0.160143	 0.002496
					CHANNELS 3 Zrotation Xrotation Yrotation
					JOINT LeftArm
					{
						OFFSET	 0.000000	 0.164363	 0.000000
						CHANNELS 3 Zrotation Xrotation Yrotation
						JOINT LeftForeArm
						{
							OFFSET	 0.000000	 0.364576	 0.000000
							CHANNELS 3 Zrotation Xrotation Yrotation
							JOINT LeftHand
							{
								OFFSET	 0.000000	 0.360812	 0.000000
								CHANNELS 3 Zrotation Xrotation Yrotation
								JOINT LeftHandIndex1
								{
									OFFSET	 0.000000	 0.086006	 0.000000
									CHANNELS 3 Zrotation Xrotation Yrotation
									JOINT LeftHandIndex2
									{
										OFFSET	 0.000000	 0.047237	 0.000000
										CHANNELS 3 Zrotation Xrotation Yrotation
										JOINT LeftHandIndex3
										{
											OFFSET	-0.004284	 0.038165	 0.000551
											CHANNELS 3 Zrotation Xrotation Yrotation
											End Site
											{
												OFFSET	-0.004284	 0.038165	 0.000551
											}
										}
									}
								}
							}
						}
					}
				}
				JOINT Neck
				{
					OFFSET	 0.000000	 0.176489	 0.000000
					CHANNELS 3 Zrotation Xrotation Yrotation
					JOINT Head
					{
						OFFSET	 0.000000	 0.077941	 0.001747
						CHANNELS 3 Zrotation Xrotation Yrotation
						End Site
						{
							OFFSET	 0.000000	 0.077941	 0.001747
						}
					}
				}
				JOINT RightShoulder
				{
					OFFSET	-0.080363	 0.159706	-0.000306
					CHANNELS 3 Zrotation Xrotation Yrotation
					JOINT RightArm
					{
						OFFSET	 0.000000	 0.164196	 0.000000
						CHANNELS 3 Zrotation Xrotation Yrotation
						JOINT RightForeArm
						{
							OFFSET	 0.000000	 0.365611	 0.000000
							CHANNELS 3 Zrotation Xrotation Yrotation
							JOINT RightHand
							{
								OFFSET	 0.000000	 0.360648	 0.000000
								CHANNELS 3 Zrotation Xrotation Yrotation
								JOINT RightHandIndex1
								{
									OFFSET	 0.000000	 0.069977	 0.000000
									CHANNELS 3 Zrotation Xrotation Yrotation
									JOINT RightHandIndex2
									{
										OFFSET	 0.000000	 0.052305	 0.000000
										CHANNELS 3 Zrotation Xrotation Yrotation
										JOINT RightHandIndex3
										{
											OFFSET	 0.009002	 0.042196	 0.000782
											CHANNELS 3 Zrotation Xrotation Yrotation
											End Site
											{
												OFFSET	 0.009002	 0.042196	 0.000782
											}
										}
									}
								}
							}
						}
					}
				}
			}
		}
	}
}
MOTION
Frames:    8
Frame Time: 0.03333334
 0.000295	 1.271275	 0.063355	 0.398152	-0.006759	 179.992400	-176.457800	 1.713407	-11.206410	 2.481364	-11.550180	-0.006450	-5.519494	 70.527050	 4.751987	 1.292262	 28.425850	-2.713146	 177.151200	 1.257151	 11.275150	-2.113384	-10.169040	 0.078189	 5.374726	 69.670760	-4.792110	-1.288183	 28.361890	 2.710176	-0.078299	 2.870511	-11.104600	 2.252932	 3.325281	-5.221754	-2.134418	-4.164090	 15.255020	-101.478000	 1.740664	 90.353380	 2.337926	 62.829930	 0.591180	 3.574691	 6.562661	 0.563923	-7.577082	-19.793150	-38.465470	-6.580301	 5.266122	 0.000000	 0.000000	 0.000000	 0.000000	 0.000000	 0.000000	 0.000000	 0.089846	-3.783161	 0.005928	-0.023586	 0.711944	 3.794886	 101.796200	-0.213320	-89.955440	-10.304970	 66.836410	 1.128020	-3.229877	 4.281971	 2.039204	-27.755680	-7.160951	-30.680850	 15.208500	 5.323790	 0.000000	 0.000000	 0.000000	 0.000000	 0.000000	 0.000000	 0.000000
 0.000175	 1.272029	 0.063306	 0.444301	-0.009182	 179.991900	-176.382200	 1.742249	-11.532890	 2.493032	-11.602980	-0.004112	-5.489557	 70.414280	 4.723192	 1.292262	 28.425850	-2.713146	 177.164600	 1.175515	 11.607450	-2.077337	-9.999188	 0.084496	 5.317525	 69.442870	-4.755498	-1.288183	 28.361890	 2.710176	 0.226208	 2.369454	-16.049500	 2.121595	 5.004928	-5.204422	-1.885707	-6.329361	 14.939310	-101.478000	 1.740668	 90.353370	-0.546913	 61.695730	 3.243540	 6.718574	 8.356747	-3.416337	-10.186040	-26.680930	-40.850180	-6.580301	 5.266122	 0.000000	 0.000000	 0.000000	 0.000000	 0.000000	 0.000000	 0.000000	 0.089846	-3.783161	 0.005928	-0.015417	 0.477678	 3.697153	 101.796200	-0.213311	-89.955450	-1.098925	 60.324180	-7.159008	-14.736100	 17.432300	 7.905537	-31.416350	-17.351820	-34.433510	 15.208500	 5.323790	 0.000000	 0.000000	 0.000000	 0.000000	 0.000000	 0.000000	 0.000000
 0.000104	 1.272746	 0.063261	 0.472037	-0.011827	 179.991300	-176.326400	 1.738366	-11.830660	 2.490095	-11.589690	-0.004704	-5.450849	 70.280080	 4.691312	 1.292262	 28.425850	-2.713146	 177.164600	 1.101234	 11.908620	-2.044438	-9.844016	 0.090162	 5.262826	 69.235570	-4.720541	-1.288183	 28.361890	 2.710176	 0.450757	 1.883164	-21.162010	 1.948973	 6.540199	-5.055565	-1.613824	-8.334354	 14.265260	-101.478000	 1.740666	 90.353380	-2.918195	 60.810480	 5.420567	 9.830912	 9.577714	-7.839597	-12.835370	-33.649030	-43.152540	-6.580301	 5.266122	 0.000000	 0.000000	 0.000000	 0.000000	 0.000000	 0.000000	 0.000000	 0.089846	-3.783161	 0.005928	-0.008715	 0.284640	 3.507278	 101.796200	-0.213315	-89.955440	 2.585949	 56.102350	-10.287630	-24.173490	 25.368140	 15.580540	-37.419480	-25.595250	-37.917700	 15.208500	 5.323790	 0.000000	 0.000000	 0.000000	 0.000000	 0.000000	 0.000000	 0.000000
 0.000088	 1.273474	 0.063219	 0.478846	-0.015291	 179.991100	-176.290900	 1.697625	-12.121160	 2.470366	-11.500380	-0.008654	-5.400969	 70.110070	 4.655238	 1.292262	 28.425850	-2.713146	 177.146900	 1.036176	 12.199850	-2.015171	-9.705852	 0.095132	 5.207186	 69.041110	-4.684007	-1.288183	 28.361890	 2.710176	 0.581483	 1.399343	-26.276270	 1.730375	 8.026933	-4.758924	-1.316436	-10.308860	 13.195280	-101.478000	 1.740674	 90.353390	-5.072572	 60.073990	 7.395515	 12.988550	 10.434960	-12.639330	-14.979630	-40.672450	-45.173630	-6.580301	 5.266122	 0.000000	 0.000000	 0.000000	 0.000000	 0.000000	 0.000000	 0.000000	 0.089846	-3.783161	 0.005928	-0.003269	 0.116411	 3.217372	 101.796200	-0.213316	-89.955470	 4.750809	 52.344150	-11.947910	-34.433390	 31.808140	 25.301180	-44.870540	-33.444770	-42.451270	 15.208500	 5.323790	 0.000000	 0.000000	 0.000000	 0.000000	 0.000000	 0.000000	 0.000000
 0.000200	 1.274327	 0.063182	 0.443986	-0.024145	 179.996900	-176.293600	 1.564511	-12.421930	 2.406491	-11.210820	-0.021227	-5.328933	 69.831450	 4.617315	 1.292262	 28.425850	-2.713146	 177.092200	 0.969938	 12.495960	-1.983345	-9.555482	 0.100456	 5.121746	 68.838790	-4.620276	-1.288183	 28.361890	 2.710176	 0.590175	 0.927883	-31.223820	 1.437469	 9.510405	-4.252820	-0.984933	-12.320440	 11.575120	-101.478000	 1.740670	 90.353390	-7.119320	 59.509570	 9.273534	 16.198010	 10.890680	-17.818050	-15.497850	-47.645970	-46.052870	-6.580301	 5.266122	 0.000000	 0.000000	 0.000000	 0.000000	 0.000000	 0.000000	 0.000000	 0.089846	-3.783161	 0.005928	 0.000799	-0.032768	 2.792813	 101.796200	-0.213312	-89.955460	 5.895043	 48.769470	-12.566900	-46.400850	 37.039690	 37.541240	-54.028930	-41.067330	-48.781650	 15.208500	 5.323790	 0.000000	 0.000000	 0.000000	 0.000000	 0.000000	 0.000000	 0.000000
 0.001161	 1.276647	 0.063068	 0.101191	-0.030672	-179.997400	-176.535100	 0.941670	-13.344110	 2.127899	-9.941125	-0.072363	-5.078894	 68.788130	 4.497576	 1.292262	 28.425850	-2.713146	 176.694600	 1.210362	 13.367580	-2.084044	-10.030800	 0.083329	 5.051455	 68.710780	-4.534993	-1.288183	 28.361890	 2.710176	 0.137514	 0.196418	-39.193840	 0.221391	 12.689970	-0.971554	-0.116746	-16.797060	 2.643937	-101.478000	 1.740677	 90.353360	-11.258310	 59.689180	 13.153370	 24.080930	 9.504325	-32.004330	 12.399480	-57.184940	-21.634680	-6.580301	 5.266122	 0.000000	 0.000000	 0.000000	 0.000000	 0.000000	 0.000000	 0.000000	 0.089846	-3.783161	 0.005928	 0.001535	-0.280082	 0.627871	 101.796200	-0.213317	-89.955440	 2.893468	 40.205660	-7.810947	-86.908540	 41.065290	 81.715150	-86.078270	-58.649890	-80.469470	 15.208500	 5.323790	 0.000000	 0.000000	 0.000000	 0.000000	 0.000000	 0.000000	 0.000000
 0.001669	 1.277418	 0.063027	-0.116245	-0.027928	 179.997300	-176.718600	 0.643632	-13.703450	 1.998740	-9.348964	-0.094006	-4.932586	 68.330090	 4.406581	 1.292262	 28.425850	-2.713146	 176.452600	 1.445863	 13.718720	-2.186089	-10.511030	 0.065135	 5.112908	 68.809190	-4.570284	-1.288183	 28.361890	 2.710176	-0.006479	 0.301390	-37.716960	-0.336838	 12.752970	 0.885893	 0.131960	-16.880160	-2.121866	-101.478000	 1.740687	 90.353400	-10.926830	 60.921160	 12.921710	 25.604160	 7.475492	-35.620920	 28.148920	-48.474640	-6.117177	-6.580301	 5.266122	 0.000000	 0.000000	 0.000000	 0.000000	 0.000000	 0.000000	 0.000000	 0.089846	-3.783161	 0.005928	-0.001180	-0.283841	-0.476489	 101.796200	-0.213306	-89.955460	-2.217217	 38.108220	-1.981938	-99.722710	 38.493020	 96.170050	-95.384450	-64.583950	-95.507750	 15.208500	 5.323790	 0.000000	 0.000000	 0.000000	 0.000000	 0.000000	 0.000000	 0.000000
 0.002653	 1.279669	 0.062855	-0.514556	 0.001457	-179.990500	-176.980800	 0.478839	-15.116420	 1.940832	-9.082792	-0.103279	-4.912171	 67.591140	 4.425437	 1.292262	 28.425850	-2.713146	 175.913500	 2.160605	 15.072780	-2.511615	-12.032510	 0.001500	 5.208295	 69.016400	-4.555931	-1.288183	 28.361890	 2.710176	 0.069030	 1.775802	-3.331500	-1.933705	 7.296179	 4.975974	 1.503309	-9.296545	-13.814150	-101.478000	 1.740670	 90.353390	-2.358545	 61.465680	 4.975779	 25.283780	 4.782354	-36.378420	 19.002580	 13.415020	 17.696460	-6.580301	 5.266122	 0.000000	 0.000000	 0.000000	 0.000000	 0.000000	 0.000000	 0.000000	 0.089846	-3.783161	 0.005928	 0.005730	 0.194588	-3.373171	 101.796200	-0.213310	-89.955460	-45.099230	 31.342530	 44.340270	-108.480700	 36.397850	 103.668200	 66.713640	-65.475740	 23.684530	 15.208500	 5.323790	 0.000000	 0.000000	 0.000000	 0.000000	 0.000000	 0.000000	 0.000000
